<svg xmlns="http://www.w3.org/2000/svg" width="100" height="100" viewBox="0 0 100 100" fill="none" class="svg-icon svg-icon-maturity-rating-24306 "><path d="M88.7269 100H11.2731C5.04304 100 0 94.9584 0 88.7324V11.2756C0 5.04961 5.04304 0 11.2731 0H88.7269C94.949 0 100 5.04961 100 11.2756V88.7324C100 94.9504 94.957 100 88.7269 100Z" fill="#C52E37"></path><path d="M21.1919 34.7552V84.451H36.6157V15.541H22.8171L15.6868 34.7552H21.1919Z" fill="white"></path><path fill-rule="evenodd" clip-rule="evenodd" d="M43.5229 15.541H81.8435C82.688 15.541 83.3812 16.2292 83.3812 17.0695V82.9066C83.3812 83.7548 82.696 84.4431 81.8435 84.4431H44.0647C43.2202 84.4431 42.5271 83.7548 42.5271 82.9066V62.436H57.4968V71.4549H68.4114V54.8576H45.0526C43.3636 54.8576 41.9854 53.4812 41.9854 51.7766V17.0775C41.9854 16.2292 42.6705 15.541 43.5229 15.541ZM58.7635 28.2171C57.9191 28.2171 57.226 28.9053 57.226 29.7536V41.8134C57.226 42.6617 57.9111 43.3499 58.7635 43.3499H66.6826C67.5271 43.3499 68.2202 42.6617 68.2202 41.8134V29.7536C68.2202 28.9053 67.5351 28.2171 66.6826 28.2171H58.7635Z" fill="white"></path></svg>